# xmcd
#
# Track frame offsets: 
#        150
#        30683
#        55182
#        79111
#        110461
#        125703
#        143944
#        169297
#        173064
#        207929
#        230743
#        253208
#        274729
#
# Disc length: 4132 seconds
#
# Revision: 0
# Processed by: cddbd v1.5.2PL0 Copyright (c) Steve Scherf et al.
# Submitted via: ExactAudioCopyFreeDBPlugin 1.0
#
DISCID=c110220d
DTITLE=Eric Clapton - Blues Night
DYEAR=1990
DGENRE=Blues
TTITLE0=Key To The Highway
TTITLE1=Worried Life Blues
TTITLE2=Watch Yourself
TTITLE3=Have You Ever Loved A Woman
TTITLE4=Johnnies Boogie
TTITLE5=Standing Around Crying
TTITLE6=Long Distance Call
TTITLE7=Band Introduction
TTITLE8=Going Down Slow
TTITLE9=You Belong To Me
TTITLE10=Cry For Me
TTITLE11=Howling For My Baby
TTITLE12=Same Thing
EXTD=
EXTT0=
EXTT1=
EXTT2=
EXTT3=
EXTT4=
EXTT5=
EXTT6=
EXTT7=
EXTT8=
EXTT9=
EXTT10=
EXTT11=
EXTT12=
PLAYORDER=
